<?xml version="1.0" standalone="no"?>
<!DOCTYPE svg PUBLIC "-//W3C//DTD SVG 20010904//EN"
 "http://www.w3.org/TR/2001/REC-SVG-20010904/DTD/svg10.dtd">
<svg version="1.0" xmlns="http://www.w3.org/2000/svg"
 width="32.000000pt" height="32.000000pt" viewBox="0 0 32.000000 32.000000"
 preserveAspectRatio="xMidYMid meet">

<g transform="translate(0.000000,32.000000) scale(0.100000,-0.100000)"
fill="#000000" stroke="none">
<path d="M22 300 c-22 -18 -22 -24 -20 -157 l3 -138 155 0 155 0 2 140 3 140
-27 19 c-18 14 -28 16 -31 8 -5 -15 -49 -16 -54 -1 -3 8 -10 8 -26 -2 -19 -12
-25 -12 -44 0 -16 10 -23 10 -26 2 -5 -14 -52 -15 -52 -1 0 15 -12 12 -38 -10z
m8 -30 c0 -5 5 -10 11 -10 5 0 7 5 4 10 -4 6 6 10 24 10 16 0 33 -4 36 -10 3
-5 11 -10 16 -10 6 0 7 5 4 10 -4 6 7 10 24 10 17 0 31 -4 31 -10 0 -5 5 -10
11 -10 5 0 7 5 4 10 -4 6 6 10 24 10 16 0 33 -4 36 -10 3 -5 11 -10 16 -10 6
0 7 5 4 10 -3 6 3 10 14 10 14 0 21 -6 21 -20 0 -19 -7 -20 -150 -20 -143 0
-150 1 -150 20 0 11 5 20 10 20 6 0 10 -4 10 -10z m278 -147 l-3 -108 -145 0
-145 0 -3 108 -3 107 151 0 151 0 -3 -107z"/>
<path d="M100 210 c0 -6 32 -10 75 -10 43 0 75 4 75 10 0 6 -32 10 -75 10 -43
0 -75 -4 -75 -10z"/>
<path d="M40 150 c0 -27 3 -30 30 -30 27 0 30 3 30 30 0 27 -3 30 -30 30 -27
0 -30 -3 -30 -30z m50 0 c0 -13 -7 -20 -20 -20 -19 0 -27 20 -13 33 13 14 33
6 33 -13z"/>
<path d="M130 150 c0 -27 3 -30 30 -30 27 0 30 3 30 30 0 27 -3 30 -30 30 -27
0 -30 -3 -30 -30z m50 0 c0 -13 -7 -20 -20 -20 -13 0 -20 7 -20 20 0 13 7 20
20 20 13 0 20 -7 20 -20z"/>
<path d="M220 150 c0 -27 3 -30 30 -30 27 0 30 3 30 30 0 27 -3 30 -30 30 -27
0 -30 -3 -30 -30z m48 -3 c2 -12 -3 -17 -17 -17 -15 0 -21 6 -21 21 0 25 33
22 38 -4z"/>
<path d="M40 70 c0 -27 3 -30 30 -30 27 0 30 3 30 30 0 27 -3 30 -30 30 -27 0
-30 -3 -30 -30z m50 -1 c0 -25 -33 -22 -38 4 -2 12 3 17 17 17 15 0 21 -6 21
-21z"/>
<path d="M130 70 c0 -27 3 -30 30 -30 27 0 30 3 30 30 0 27 -3 30 -30 30 -27
0 -30 -3 -30 -30z m50 0 c0 -13 -7 -20 -20 -20 -13 0 -20 7 -20 20 0 13 7 20
20 20 13 0 20 -7 20 -20z"/>
<path d="M220 70 c0 -27 3 -30 30 -30 27 0 30 3 30 30 0 27 -3 30 -30 30 -27
0 -30 -3 -30 -30z m48 3 c-5 -26 -38 -29 -38 -4 0 15 6 21 21 21 14 0 19 -5
17 -17z"/>
</g>
</svg>
